<?xml version="1.0" encoding="UTF-8" standalone="no"?>
<!-- Created with Inkscape (http://www.inkscape.org/) -->

<svg
   width="180mm"
   height="130mm"
   viewBox="0 0 180 130"
   version="1.1"
   id="svg1"
   inkscape:version="1.3 (0e150ed, 2023-07-21)"
   sodipodi:docname="hybridzone.svg"
   xmlns:inkscape="http://www.inkscape.org/namespaces/inkscape"
   xmlns:sodipodi="http://sodipodi.sourceforge.net/DTD/sodipodi-0.dtd"
   xmlns="http://www.w3.org/2000/svg"
   xmlns:svg="http://www.w3.org/2000/svg">
  <sodipodi:namedview
     id="namedview1"
     pagecolor="#ffffff"
     bordercolor="#000000"
     borderopacity="0.25"
     inkscape:showpageshadow="2"
     inkscape:pageopacity="0.0"
     inkscape:pagecheckerboard="0"
     inkscape:deskcolor="#d1d1d1"
     inkscape:document-units="mm"
     inkscape:zoom="0.61201599"
     inkscape:cx="397.04845"
     inkscape:cy="561.25984"
     inkscape:window-width="1440"
     inkscape:window-height="900"
     inkscape:window-x="0"
     inkscape:window-y="0"
     inkscape:window-maximized="0"
     inkscape:current-layer="layer1" />
  <defs
     id="defs1" />
  <g
     inkscape:label="Layer 1"
     inkscape:groupmode="layer"
     id="layer1">
    <path
       style="fill:#fd0700;fill-opacity:0.5;stroke:#000000;stroke-width:0.122;stroke-opacity:0"
       d="m 53.174672,26.371179 c -2.546339,-0.693054 -4.752855,2.882385 -7.349344,2.593886 -2.092801,-0.232534 -3.504983,-0.625239 -5.620088,0.432314 -0.579022,0.289512 -0.599027,1.031343 -0.864629,1.296945 -0.715502,0.715502 -2.076638,0.694761 -2.593885,1.729256 -0.929508,1.859012 -2.275182,3.412773 -3.458517,5.187772 -0.932193,1.398291 -1.644915,2.936187 -2.593885,4.323146 -1.855603,2.712032 -4.374023,5.098812 -5.620089,8.213974 -2.546263,6.365658 -3.502192,15.344926 -2.161572,22.048036 0.227852,1.13925 7.94e-4,2.3798 0.432316,3.45851 0.192966,0.48242 0.682191,0.81045 0.864627,1.29695 0.615529,1.64141 0.200176,2.34043 0.864629,3.89083 0.204671,0.47756 0.632267,0.83221 0.864629,1.29694 0.06444,0.12889 -0.101896,0.33042 0,0.43231 0.101899,0.1019 0.330417,-0.10189 0.432316,0 0.101897,0.1019 -0.06445,0.30343 0,0.43232 0.303054,0.60611 3.332647,3.76496 3.458515,3.89083 1.110117,1.11012 4.299312,3.23044 5.620085,3.89083 0.354111,0.17705 1.399032,-0.066 1.729259,0 2.424499,0.4849 4.569121,0.709964 6.917031,1.296944 0.813768,0.20344 1.780117,-0.20344 2.593885,0 0.308052,0.077 1.977483,0.818613 2.161574,0.864633 0.978615,0.24465 2.031191,-0.16584 3.026199,0 0.317844,0.053 0.558937,0.33042 0.864629,0.43231 1.979303,0.65977 4.495795,-1.106613 6.052402,-1.729253 0.407156,-0.16287 2.084371,-0.355124 2.593887,-0.864634 0.101897,-0.1019 -0.08646,-0.31703 0,-0.43232 0.733661,-0.97821 1.830028,-1.63906 2.593885,-2.59388 0.938245,-1.17281 1.956769,-2.61659 2.593888,-3.89083 0.290079,-0.58016 -0.287951,-6.62831 -0.432316,-6.91703 -0.06444,-0.1289 -0.397362,0.1398 -0.432313,0 -0.287457,-1.14983 0.104905,-3.68102 -0.432313,-4.75546 -0.06445,-0.12889 -0.330417,0.1019 -0.432316,0 -0.274222,-0.27423 0.179969,-1.36932 0,-1.72926 -1.240539,-2.48108 -1.43954,-7.06867 -0.86463,-9.943231 0.230471,-1.152345 0.586217,-1.326332 0.86463,-2.161572 0.13671,-0.41013 -0.193337,-0.910269 0,-1.296945 1.615879,-3.231755 2.703375,-7.136005 4.323143,-10.375545 0.394788,-0.789572 0,-6.852187 0,-7.781658 0,-1.393232 -0.217964,-6.488332 -0.864626,-7.78166 -0.100838,-0.201671 -2.237836,-1.118918 -2.593888,-1.296943 -0.18228,-0.09114 -0.288211,-0.28821 -0.432313,-0.432315 -0.288211,-0.144103 -0.565449,-0.31264 -0.86463,-0.432314 -0.551664,-0.220665 -1.309124,-0.01217 -1.729258,-0.432313 -0.101896,-0.101899 0.101896,-0.330417 0,-0.432316 -0.101896,-0.101896 -0.288211,0 -0.432313,0 -1.443215,0 -3.926914,-0.458494 -5.187773,0 -1.211313,0.440478 -2.737991,-2.305675 -3.890831,-1.729257 z"
       id="path2"
       sodipodi:nodetypes="csssssssscssssscsscsssccsscsssssssssssssscsssssc" />
    <text
       xml:space="preserve"
       style="font-size:1.41111px;font-family:'Arial Black';-inkscape-font-specification:'Arial Black, ';text-align:center;text-anchor:middle;white-space:pre;inline-size:31.6608;fill:#000000;fill-opacity:1;stroke:#000000;stroke-width:0.0206119;stroke-opacity:1"
       x="108.0786"
       y="87.759827"
       id="text4"
       transform="matrix(3.9196168,0,0,8.9380292,-316.93216,-724.50394)"><tspan
         x="108.0786"
         y="87.759827"
         id="tspan1">Hybrid Zone</tspan></text>
    <path
       style="fill:#000000;fill-opacity:1;stroke:#000000;stroke-width:0.122;stroke-opacity:1"
       d="M 51.445414,52.310044 86.895194,31.126637 Z"
       id="path5" />
    <text
       xml:space="preserve"
       style="font-size:8.7056px;font-family:'Arial Black';-inkscape-font-specification:'Arial Black, ';text-align:center;text-anchor:middle;fill:#000000;fill-opacity:1;stroke:#000000;stroke-width:0.122;stroke-opacity:1"
       x="187.39348"
       y="19.008385"
       id="text5"
       transform="scale(0.62861703,1.5907937)"><tspan
         sodipodi:role="line"
         id="tspan5"
         style="stroke-width:0.122"
         x="187.39348"
         y="19.008385">Species 1 Range</tspan></text>
    <text
       xml:space="preserve"
       style="font-size:8.7056px;font-family:'Arial Black';-inkscape-font-specification:'Arial Black, ';text-align:center;text-anchor:middle;fill:#000000;fill-opacity:1;stroke:#000000;stroke-width:0.122;stroke-opacity:1"
       x="225.73555"
       y="51.517773"
       id="text5-8"
       transform="scale(0.62861703,1.5907937)"><tspan
         sodipodi:role="line"
         id="tspan5-8"
         style="stroke-width:0.122"
         x="225.73555"
         y="51.517773">Species 2 Range</tspan></text>
    <path
       style="fill:#ffff00;fill-opacity:0.502155;stroke:#000000;stroke-width:0.122;stroke-opacity:0"
       d="m 39.772927,101.16158 c -0.07485,-5.600485 1.46024,-11.134472 3.890827,-15.995642 0.131006,-0.26201 0.251158,-1.11578 0.432316,-1.29694 0.216157,-0.21616 0.64847,-0.21616 0.864629,-0.43232 0.894474,-0.89447 -1.366874,0.035 0.432314,-0.86463 0.128891,-0.0644 0.330416,0.1019 0.432315,0 0.52655,-0.52655 0.202505,-0.96588 0.864627,-1.29694 0.128892,-0.0644 0.330417,0.1019 0.432316,0 0.101896,-0.1019 -0.101899,-0.33042 0,-0.43231 0.101896,-0.1019 0.330417,0.10189 0.432313,0 0.101899,-0.1019 -0.101896,-0.33042 0,-0.43232 0.894474,-0.89447 -0.03496,1.36688 0.864629,-0.43231 0.06444,-0.12889 -0.101896,-0.33042 0,-0.43232 0.101899,-0.10189 0.330417,0.1019 0.432316,0 0.101897,-0.10189 -0.101899,-0.33042 0,-0.43231 0.101897,-0.1019 0.330415,0.10189 0.432314,0 0.227848,-0.22785 0.204464,-0.63678 0.432313,-0.86463 0.227851,-0.22785 0.636781,-0.20447 0.864629,-0.43231 0.101899,-0.1019 -0.101896,-0.33042 0,-0.43232 0.101899,-0.1019 0.303424,0.0645 0.432316,0 0.51072,-0.25536 0.820029,-0.979 1.296943,-1.29694 0.228375,-0.15225 2.543712,-1.67909 2.593885,-1.72926 0.101899,-0.1019 -0.101897,-0.33042 0,-0.43231 0.144105,-0.14411 1.152839,-0.28822 1.296945,-0.43232 0.101896,-0.1019 -0.101899,-0.33041 0,-0.43231 0.203795,-0.2038 0.606845,0.12889 0.864629,0 0.364559,-0.18228 0.500068,-0.68235 0.864627,-0.86463 0.443325,-0.22166 1.285935,-0.21066 1.729258,-0.43232 0.182279,-0.0911 0.234603,-0.38288 0.432316,-0.43231 2.762967,-0.69074 9.785712,0.81212 12.537117,1.72926 0.447799,0.14926 0.868056,0.65018 1.296942,0.86463 2.319886,1.15994 4.896208,2.9029 7.349345,4.32314 3.896108,2.25564 6.660346,3.59024 9.943232,6.0524 0.46927,0.35195 0.61594,1.04826 0.86463,1.29694 0.1019,0.1019 0.33042,-0.10189 0.43231,0 0.15274,0.15274 1.88034,3.76067 2.16158,4.32315 0.1707,0.3414 -0.12153,0.93235 0,1.29694 0.40404,1.212144 1.55061,3.815807 0.86462,5.187777 -0.67933,1.35867 -1.02428,2.9132 -1.72925,4.323155 -0.18228,0.36456 -0.68235,0.50007 -0.86463,0.86463 -0.18487,0.36973 -0.24745,0.92721 -0.43232,1.29694 -0.34585,0.6917 -1.3834,1.03756 -1.72925,1.72926 -0.0644,0.12889 0.10189,0.33042 0,0.43231 -0.1019,0.1019 -0.33042,-0.10189 -0.43232,0 -0.10189,0.1019 0.1019,0.33042 0,0.43232 -0.10189,0.10189 -0.33042,-0.1019 -0.43232,0 -0.1019,0.10189 0.1019,0.33041 0,0.43231 -0.1019,0.1019 -0.33041,-0.1019 -0.43231,0 -0.1019,0.1019 0.1019,0.33042 0,0.43232 -0.894476,0.89447 0.035,-1.36688 -0.864626,0.43231 -0.0644,0.12889 0.1019,0.33042 0,0.43232 -0.28221,0.28221 -2.097155,1.04857 -2.593887,1.29694 -0.364559,0.18228 -0.525494,0.63854 -0.864629,0.86463 -0.279016,0.18601 -1.542029,0.6774 -1.729258,0.86462 -0.101897,0.1019 0.101899,0.33042 0,0.43232 -0.224325,0.22433 -1.748222,0.65796 -2.161572,0.86463 -0.359939,0.17997 -1.455034,-0.27422 -1.729256,0 -0.101899,0.1019 0.101896,0.33042 0,0.43231 -0.274225,0.27422 -1.369319,-0.17997 -1.729258,0 -1.114507,0.55726 -1.572633,0.0919 -2.593888,0.43232 -2.515137,0.83838 -5.518724,0.43231 -8.213974,0.43231 -1.878898,0 -6.624457,0.52984 -8.213973,0 -0.855025,-0.28501 -1.443244,-0.50546 -2.161572,-0.86463 -0.257781,-0.12889 -0.660834,0.2038 -0.864629,0 -0.101896,-0.10189 0.101899,-0.33041 0,-0.43231 -0.216157,-0.21616 -1.080786,0.21616 -1.296943,0 -0.101896,-0.1019 0.101897,-0.33042 0,-0.43232 -0.523348,-0.52335 -1.72567,-0.42872 -2.161571,-0.86463 -0.101899,-0.10189 0.101896,-0.33041 0,-0.43231 -0.203796,-0.20379 -0.606846,0.12889 -0.86463,0 -0.364558,-0.18228 -0.50007,-0.68235 -0.864629,-0.86463 -0.453538,-0.22677 -1.832943,-0.10368 -2.161572,-0.43231 -0.101896,-0.1019 0.101899,-0.33042 0,-0.43232 -0.143406,-0.1434 -1.473993,-0.73699 -1.729258,-0.86462 -2.15515,-1.07758 1.290524,0.21294 -0.864627,-0.86463 -0.262008,-0.13101 -1.115785,-0.25116 -1.296945,-0.43232 -0.101896,-0.1019 0.101899,-0.33042 0,-0.43231 -0.283416,-0.28342 -1.512668,-0.21573 -1.729255,-0.43232 -0.101899,-0.10189 0.101896,-0.33042 0,-0.43231 -0.144106,-0.14411 -1.15284,-0.28821 -1.296946,-0.43232 -0.894474,-0.89447 1.366875,0.035 -0.432313,-0.86462 -0.128892,-0.0644 -0.358174,0.12356 -0.432316,0 -0.399261,-0.66544 -0.576418,-1.44105 -0.864626,-2.16158 z"
       id="path7" />
    <path
       style="fill:#000000;fill-opacity:1;stroke:#000000;stroke-width:0.122;stroke-opacity:1"
       d="M 77.384278,95.109175 111.1048,81.707428"
       id="path6" />
    <path
       style="fill:#fd0700;fill-opacity:0.5;stroke:#000000;stroke-width:0.122;stroke-opacity:1"
       d="M 56.200874,80.842798 87.327514,60.524017 Z"
       id="path4" />
  </g>
</svg>
